<?xml version="1.0" encoding="UTF-8"?>
<svg id="Layer_1" xmlns="http://www.w3.org/2000/svg" version="1.1" viewBox="0 0 89.96 92.76">
  <!-- Generator: Adobe Illustrator 30.2.1, SVG Export Plug-In . SVG Version: 2.1.1 Build 1)  -->
  <defs>
    <style>
      .st0 {
        fill: #ebebeb;
      }

      .st1 {
        fill: #2965f1;
      }

      .st2 {
        fill: #fff;
      }

      .st3 {
        fill: #1b1b42;
      }

      .st4 {
        fill: #264de4;
      }
    </style>
  </defs>
  <rect class="st3" x="6.35" y="7.75" width="77.25" height="77.25" rx="13.08" ry="13.08"/>
  <g>
    <path class="st4" d="M44.6,77.57l-17.6-4.89-3.92-43.99h43.1l-3.93,43.99-17.65,4.89h0Z"/>
    <path class="st1" d="M58.89,69.87l3.36-37.59h-17.62v41.54l14.26-3.95h0Z"/>
    <path class="st0" d="M32.07,48.6l.48,5.4h12.07v-5.4h-12.56Z"/>
    <path class="st0" d="M31.1,37.68l.49,5.4h13.04v-5.4h-13.53Z"/>
    <path class="st0" d="M44.63,62.61h-.02s-6.01-1.62-6.01-1.62l-.38-4.3h-5.42l.76,8.47,11.05,3.07h.02v-5.62h0Z"/>
    <path class="st2" d="M33.22,16.73h6.54v2.73h-3.8v2.73h3.8v2.73h-6.54v-8.2h0Z"/>
    <path class="st2" d="M41.06,16.73h6.54v2.38h-3.8v.48h3.8v5.47h-6.54v-2.5h3.8v-.48h-3.8v-5.35h0Z"/>
    <path class="st2" d="M48.9,16.73h6.54v2.38h-3.8v.48h3.8v5.47h-6.54v-2.5h3.8v-.48h-3.8v-5.35h0Z"/>
    <path class="st2" d="M57.15,48.6l.97-10.92h-13.52v5.4h7.6l-.49,5.53h-7.11v5.4h6.64l-.63,7-6.02,1.62v5.61l11.06-3.07.08-.91,1.27-14.21.13-1.45h0Z"/>
  </g>
</svg>