<?xml version="1.0" encoding="UTF-8"?>
<svg id="Layer_1" xmlns="http://www.w3.org/2000/svg" version="1.1" viewBox="0 0 89.96 92.76">
  <!-- Generator: Adobe Illustrator 30.2.1, SVG Export Plug-In . SVG Version: 2.1.1 Build 1)  -->
  <defs>
    <style>
      .st0 {
        fill: #fff;
      }

      .st1 {
        fill: #002c5c;
      }
    </style>
  </defs>
  <rect class="st1" x="6.35" y="7.75" width="77.25" height="77.25" rx="13.08" ry="13.08"/>
  <g id="_x35_151e0c8492e5103c096af88a51e8d81">
    <path class="st0" d="M39.22,40.36c-.44-.97-.64-2.11-.3-3.14.34-1.05,1.09-1.9,1.84-2.69,2.1-2.1,4.68-3.64,6.73-5.77,1.14-1.17,2.07-2.57,2.4-4.19.27-1.18.14-2.4-.1-3.57,1.09,1.24,1.45,3.01,1.14,4.61-.34,1.8-1.33,3.38-2.5,4.75-.94,1.1-2.02,2.08-3.14,2.98-1.31,1.05-2.6,2.19-3.42,3.67-.7,1.21-.86,2.69-.38,4,.78,2.25,2.58,3.92,3.57,6.04-1.09-.96-2.16-1.96-3.15-3.01-1.04-1.11-2.03-2.3-2.68-3.69ZM45.13,38.6c-.2,1.84.76,3.58,1.91,4.95.56.61,1.03,1.37,1.05,2.23.02,1.15-.63,2.21-1.46,2.97.2-.02.34-.2.5-.29,1.25-.8,2.46-1.81,3.07-3.19.41-.94.31-2.05-.22-2.92-.63-1.02-1.45-1.92-1.94-3.04-.27-.63-.36-1.36-.14-2.02.29-.89.92-1.62,1.58-2.26,1.82-1.73,4.02-2.96,6.13-4.3-2.67.76-5.3,1.82-7.55,3.48-1.43,1.07-2.75,2.55-2.94,4.39ZM57.8,47.32c1.26.07,2.5,1,2.74,2.27.22,1.1-.31,2.19-1,3.03-1.12,1.34-2.64,2.31-4.17,3.13-.15.09-.28.21-.39.34,2.02-.51,4.03-1.27,5.67-2.58.9-.75,1.7-1.75,1.88-2.94.16-1.03-.27-2.1-1.03-2.78-.93-.85-2.24-1.16-3.47-1-.71.09-1.48.24-1.97.83.58-.12,1.15-.35,1.75-.29ZM32.63,50.64c1.52.41,3.08.52,4.64.63,1.39.09,2.78.12,4.19.1,3.62-.06,7.26-.3,10.8-1.09.34-.08.71-.14,1.01-.35.59-.38,1.24-.68,1.88-.99-2.89.46-5.78.86-8.71,1.04-2.96.19-5.94.3-8.9.1-.85-.08-1.72-.13-2.5-.45-.19-.08-.44-.24-.35-.49.17-.31.52-.46.82-.63,1.28-.6,2.67-.94,4.02-1.33-2.33-.04-4.65.56-6.78,1.47-.48.23-1.01.42-1.39.81-.15.16-.15.44.02.58.35.31.81.45,1.25.58ZM51.41,53.82c-2.03.36-4.07.7-6.12.8-2.25.15-4.5.02-6.72-.21-.43-.06-.86-.13-1.24-.32-.2-.12-.39-.3-.38-.55.02-.38.35-.65.58-.93-.72.26-1.44.52-2.04,1-.26.2-.51.51-.44.86.1.41.5.65.85.83.86.44,1.82.64,2.76.81,2.38.38,4.8.39,7.19.23,2.53-.2,5.04-.61,7.49-1.33-.7-.31-1.36-.67-1.91-1.19ZM38.67,57.83c-.65.19-1.31.41-1.84.83-.27.21-.48.57-.35.9.16.43.57.68.95.9,1,.55,2.12.8,3.22,1,2.49.39,5.05.34,7.54-.1,1.47-.28,2.94-.67,4.31-1.29-.89-.37-1.76-.79-2.6-1.28-1.45.25-2.91.52-4.39.61-1.96.15-3.94-.01-5.9-.25-.46-.1-1.04-.15-1.36-.56-.16-.34.21-.58.42-.78ZM54.53,65.29c1.62-.34,3.26-.72,4.74-1.47.46-.27,1.03-.56,1.18-1.11.08-.53-.48-.81-.87-1.03.24.28.41.68.16,1.01-.41.55-1.1.75-1.72.96-1.92.54-3.92.77-5.9.99-5.25.48-10.54.59-15.79.15-1.76-.19-3.56-.38-5.24-1.01-.27-.12-.67-.23-.67-.59.1-.31.41-.49.67-.64,1.21-.61,2.55-.95,3.89-1.03-.39-.23-.86-.25-1.31-.24-1.12.03-2.23.32-3.29.68-.92.34-1.85.71-2.59,1.38-.29.25-.56.74-.26,1.09.46.5,1.18.63,1.82.78,3.57.61,7.19.96,10.8,1.09,4.8.14,9.63-.07,14.35-1ZM59.28,65.91c-2.18.7-4.44,1.08-6.69,1.39-3.88.49-7.8.64-11.71.52-2.38-.09-4.75-.25-7.09-.65.54.37,1.22.49,1.84.66,2.63.56,5.33.66,8.01.74,3.93.07,7.86-.08,11.73-.7,1.83-.32,3.67-.72,5.32-1.58.86-.45,1.73-1.15,1.88-2.16-.87.93-2.12,1.36-3.29,1.76Z"/>
  </g>
</svg>