<?xml version="1.0" encoding="UTF-8"?>
<svg id="Layer_1" xmlns="http://www.w3.org/2000/svg" version="1.1" viewBox="0 0 89.96 92.76">
  <!-- Generator: Adobe Illustrator 30.2.1, SVG Export Plug-In . SVG Version: 2.1.1 Build 1)  -->
  <defs>
    <style>
      .st0 {
        fill: #242626;
      }

      .st1 {
        fill: #f7df1e;
      }
    </style>
  </defs>
  <rect class="st0" x="6.35" y="7.75" width="77.25" height="77.25" rx="13.08" ry="13.08"/>
  <g>
    <path class="st1" d="M21.07,22.47h47.82v47.82H21.07V22.47Z"/>
    <path d="M33.65,62.43l3.66-2.21c.71,1.25,1.35,2.31,2.89,2.31s2.41-.58,2.41-2.82v-15.28h4.49v15.34c0,4.65-2.73,6.77-6.71,6.77-3.59,0-5.68-1.86-6.74-4.11"/>
    <path d="M49.53,61.95l3.66-2.12c.96,1.57,2.21,2.73,4.43,2.73,1.86,0,3.05-.93,3.05-2.21,0-1.54-1.22-2.09-3.27-2.98l-1.12-.48c-3.24-1.38-5.39-3.11-5.39-6.77,0-3.37,2.57-5.94,6.58-5.94,2.86,0,4.91,1,6.39,3.59l-3.5,2.25c-.77-1.38-1.6-1.93-2.89-1.93s-2.15.83-2.15,1.93c0,1.35.83,1.89,2.76,2.73l1.12.48c3.82,1.64,5.97,3.31,5.97,7.06,0,4.04-3.18,6.26-7.45,6.26s-6.87-1.99-8.18-4.59"/>
  </g>
</svg>