<?xml version="1.0" encoding="UTF-8"?>
<svg id="Layer_1" xmlns="http://www.w3.org/2000/svg" version="1.1" viewBox="0 0 89.96 92.76">
  <!-- Generator: Adobe Illustrator 30.2.1, SVG Export Plug-In . SVG Version: 2.1.1 Build 1)  -->
  <defs>
    <style>
      .st0 {
        fill: #95bf46;
      }

      .st1 {
        fill: #fff;
      }

      .st2 {
        fill: #5e8e3e;
      }

      .st3 {
        fill: #053000;
      }
    </style>
  </defs>
  <rect class="st3" x="6.35" y="7.75" width="77.25" height="77.25" rx="13.08" ry="13.08"/>
  <g>
    <path class="st0" d="M61.46,31c-.03-.25-.25-.38-.43-.4-.18-.01-3.94-.29-3.94-.29,0,0-2.61-2.59-2.9-2.88-.29-.29-.85-.2-1.06-.14-.03,0-.57.18-1.46.45-.87-2.51-2.41-4.82-5.12-4.82-.07,0-.15,0-.23,0-.77-1.02-1.73-1.46-2.55-1.46-6.31,0-9.33,7.89-10.27,11.9-2.45.76-4.2,1.3-4.42,1.37-1.37.43-1.41.47-1.59,1.76-.14.98-3.72,28.68-3.72,28.68l27.91,5.23,15.12-3.27s-5.31-35.89-5.34-36.14h0ZM50.12,28.23c-.7.22-1.5.46-2.36.73,0-.17,0-.33,0-.51,0-1.56-.22-2.82-.56-3.81,1.4.18,2.33,1.76,2.92,3.59h0ZM45.47,24.94c.39.97.64,2.37.64,4.25,0,.1,0,.18,0,.27-1.54.48-3.21.99-4.88,1.51.94-3.62,2.7-5.38,4.24-6.04h0ZM43.59,23.17c.27,0,.55.09.81.27-2.02.95-4.19,3.35-5.11,8.14-1.34.41-2.65.82-3.86,1.19,1.07-3.65,3.62-9.6,8.15-9.6h0Z"/>
    <path class="st2" d="M61.03,30.61c-.18-.01-3.94-.29-3.94-.29,0,0-2.61-2.59-2.9-2.88-.11-.11-.25-.16-.4-.19l-2.11,43.17,15.12-3.27s-5.31-35.89-5.34-36.14c-.03-.25-.25-.38-.43-.4"/>
    <path class="st1" d="M46.54,38.96l-1.86,5.55s-1.63-.87-3.64-.87c-2.94,0-3.08,1.84-3.08,2.31,0,2.53,6.6,3.5,6.6,9.44,0,4.67-2.96,7.68-6.95,7.68-4.79,0-7.24-2.98-7.24-2.98l1.28-4.24s2.52,2.16,4.64,2.16c1.39,0,1.95-1.09,1.95-1.89,0-3.3-5.42-3.45-5.42-8.88,0-4.57,3.28-8.99,9.9-8.99,2.55,0,3.81.73,3.81.73"/>
  </g>
</svg>