<?xml version="1.0" encoding="UTF-8"?>
<svg id="Layer_1" xmlns="http://www.w3.org/2000/svg" version="1.1" viewBox="0 0 89.96 92.76">
  <!-- Generator: Adobe Illustrator 30.2.1, SVG Export Plug-In . SVG Version: 2.1.1 Build 1)  -->
  <defs>
    <style>
      .st0 {
        fill: #00bcf2;
      }

      .st1 {
        fill: #001e26;
      }
    </style>
  </defs>
  <rect class="st1" x="6.35" y="7.75" width="77.25" height="77.25" rx="13.08" ry="13.08"/>
  <path class="st0" d="M45,73.73c-2.37-.47-4.42-2.09-5.42-4.29-.44-.97-.62-1.88-.62-3.04,0-3.34,2.11-6.14,5.38-7.14.6-.19,1-.23,1.92-.24.64,0,1.35.03,1.57.08l.4.08.5-.97c1.02-1.97,2.6-3.53,4.65-4.55,1.69-.85,2.75-1.09,4.71-1.09,1.37,0,1.69.03,2.58.27,3.83,1.01,6.81,4.02,7.75,7.8.24.95.35,3.07.22,3.91l-.09.57.54.12c1.34.3,2.5,1.24,3.1,2.51.59,1.25.48,2.87-.27,4.06-.38.6-1.13,1.28-1.75,1.58-.32.15-.66.32-.76.37-.22.11-23.83.1-24.4-.01h0ZM69.55,72.33c.66-.33,1.32-1.07,1.59-1.79.57-1.5-.19-3.24-1.7-3.92-.38-.17-.67-.21-1.46-.2-.54,0-.99-.03-.99-.08s.1-.49.22-.98c.32-1.26.31-3.26,0-4.48-.7-2.7-2.53-4.95-5.02-6.2-1.1-.55-2.14-.8-3.56-.86-2.11-.09-3.58.25-5.2,1.17-1.89,1.08-3.52,3.04-4.15,5-.12.38-.27.68-.33.68-.06,0-.4-.1-.76-.22-1.01-.33-2.72-.31-3.73.04-1.01.36-1.74.81-2.5,1.57-1.14,1.13-1.77,2.67-1.77,4.32,0,2.44,1.35,4.59,3.54,5.63,1.26.6.82.58,13.61.56l11.73-.02.47-.24h0ZM35.7,67.6c-4.24-.58-7.51-1.64-9.93-3.24-1-.66-1.69-1.4-2.07-2.22l-.29-.61.03-16.63.03-16.63.24-.45c.61-1.15,1.8-2.12,3.7-3.03,2.4-1.15,5.16-1.87,9.01-2.35,1.59-.2,6.97-.16,8.6.06,5.99.8,10.64,2.76,12.13,5.11.58.93.57.59.57,12.68v11.1l-.33.05c-.18.03-.59.08-.91.11-3.3.35-6.72,2.63-8.48,5.65l-.36.62-1.41.07c-1.67.08-2.52.29-3.78.95-2.18,1.13-3.73,3.09-4.37,5.51-.18.67-.23,1.15-.23,2.15v1.29s-.57-.01-.57-.01c-.31,0-1.01-.07-1.57-.15h0ZM44.33,52.27c-.8-.68-1.48-1.26-1.53-1.3-.05-.04.12-.19.37-.34.55-.32,1.26-1.09,1.56-1.69.73-1.47.72-3.31-.04-4.77-.84-1.6-2.58-2.45-4.56-2.2-1.08.14-1.76.44-2.48,1.11-1.13,1.06-1.52,2.1-1.46,3.88.03,1.01.07,1.2.36,1.81.62,1.32,1.93,2.31,3.26,2.47.5.06.54.09,1.54,1.16l1.02,1.1h3.43l-1.45-1.23h0ZM39.99,48.82c-.7-.35-.96-.96-.96-2.2,0-.81.04-1.04.24-1.45.32-.64.95-1.03,1.57-.96.61.07.93.32,1.25.97.24.5.28.69.28,1.48,0,.98-.18,1.48-.67,1.94-.51.48-1.05.54-1.71.21h0ZM33,51.17c1.83-.42,2.82-1.95,2.3-3.54-.27-.8-.83-1.3-2.19-1.95-.63-.3-1.2-.61-1.26-.69-.23-.3-.23-.49,0-.76.36-.41,1.17-.43,2.27-.06l.84.29-.03-1.12-.03-1.12-.56-.13c-.84-.2-2.66-.19-3.38.02-1.43.42-2.19,1.36-2.19,2.71,0,1.4.63,2.06,2.85,3,.94.4,1.04,1.14.21,1.43-.39.13-.5.13-1.11-.03-.37-.1-.94-.31-1.26-.48l-.58-.3v2.42l.58.16c.32.09.63.18.68.2.23.08,2.46.04,2.86-.05h0ZM52.54,50.11v-1.06h-3.24v-6.98h-2.63v9.1h5.87v-1.06h0ZM44.75,31.9c2.64-.31,4.8-.86,6.17-1.58.9-.47,1.11-.64,1.46-1.15,1.07-1.57-1.32-3.16-5.96-3.94-4.36-.74-10.1-.57-13.77.4-7.58,2.01-4.59,5.7,5.21,6.42,1.61.12,5.23.04,6.9-.16h0Z"/>
</svg>