<?xml version="1.0" encoding="UTF-8"?>
<svg id="divider" xmlns="http://www.w3.org/2000/svg" version="1.1" viewBox="0 0 37.23 920.97">
  <path d="M36.75,903.33l-.67-.17-.7-.18-.42-.11-1.42-.4-.56-.16-.5-.15c-1.23-.38-2.41-.8-3.57-1.31-2.36-1.04-4.22-2.31-5.75-4.26-.37-.48-.73-1.01-1.06-1.57V25.3c.33-.56.69-1.09,1.06-1.57,1.53-1.95,3.39-3.22,5.75-4.26,1.16-.51,2.34-.93,3.57-1.31l.5-.15.56-.16,1.42-.4.42-.11.7-.18.67-.17s.1-.08.12-.11c.02-.04-.03-.17-.08-.18l-2.12-.56-.69-.19-1.85-.56c-1.1-.33-2.13-.73-3.17-1.18-2.48-1.07-4.46-2.47-6.01-4.56-.79-1.07-1.41-2.19-1.94-3.38-.25-.57-.49-1.12-.7-1.7l-.51-1.41-.08-.25-.6-1.87-.19-.64h-.01s-.11-.11-.16-.11c-.06-.01-.17.06-.19.12l-.17.57-.67,2.07c-.46,1.43-1.02,2.8-1.7,4.16-1.06,2.12-2.43,3.89-4.46,5.32-1.66,1.17-4.16,2.24-6.15,2.83l-1.91.57-.69.19-2.1.55s-.09.12-.09.16c.01.05.07.14.13.15l1.48.38.71.19,1.38.39.32.1,1.61.52c1.34.43,2.61.97,3.83,1.64,2.14,1.17,3.66,2.57,4.9,4.44v871.05c-1.24,1.87-2.76,3.27-4.9,4.44-1.22.67-2.49,1.21-3.83,1.64l-1.61.52-.32.1-1.38.39-.71.19-1.48.38c-.06.01-.12.1-.13.15,0,.04.04.14.09.16l2.1.55.69.19,1.91.57c1.99.59,4.49,1.66,6.15,2.83,2.03,1.43,3.4,3.2,4.46,5.32.68,1.36,1.24,2.73,1.7,4.16l.67,2.07.17.57c.02.06.13.13.19.12.05,0,.15-.06.16-.11h.01l.19-.64.6-1.87.08-.25.51-1.41c.21-.58.45-1.13.7-1.7.53-1.19,1.15-2.31,1.94-3.38,1.55-2.09,3.53-3.49,6.01-4.56,1.04-.45,2.07-.85,3.17-1.18l1.85-.56.69-.19,2.12-.56s.1-.14.08-.18c-.02-.03-.08-.1-.12-.11h0Z"/>
</svg>