<?xml version="1.0" encoding="UTF-8"?>
<svg id="Layer_1" xmlns="http://www.w3.org/2000/svg" version="1.1" viewBox="0 0 1701.34 82.18">
  <!-- Generator: Adobe Illustrator 30.2.1, SVG Export Plug-In . SVG Version: 2.1.1 Build 1)  -->
  <defs>
    <style>
      .st0 {
        fill: #f1f1f1;
      }
    </style>
  </defs>
  <path class="st0" d="M4.56,40.16v7.11h1617.6c.03-2.38.07-4.76.13-7.11H4.56Z"/>
  <path class="st0" d="M1696.29,43.24l-1.03-.3s-2.98-.95-2.98-.96c-13.38-4.26-17.58-10.55-21.07-23.83l-.89-3.39c-.02-.08-.22-.16-.28-.13-.05.03-.17.13-.18.19-1.98,7.96-3.8,13.66-7.15,17.97-3.69,4.75-9.5,7.38-15.51,7.38h-24.93c-.03,2.35-.07,4.73-.09,7.11h25.7c6.62,0,12.94,3.31,16.29,9.02.19.33.38.67.55,1.01,1.94,3.48,3.14,7.55,4.22,11.39.22.77.69,2.68.91,3.49.02.09.16.2.23.2.06,0,.23-.06.25-.15l.87-3.35c1.26-4.63,2.96-10.01,5.72-13.94,4.51-6.54,12.14-8.97,19.34-11.16.09-.03.21-.21.2-.3,0-.08-.1-.24-.18-.26h.01,0Z"/>
</svg>