<?xml version="1.0" encoding="UTF-8"?>
<svg id="sparkle" xmlns="http://www.w3.org/2000/svg" version="1.1" viewBox="0 0 37.01 37.57">
  
  <path d="M18.58,1.4c-.02-.07-.1-.16-.15-.16-.07,0-.18.08-.21.17-.46,1.65-.92,3.27-1.51,4.88-1.48,4.04-3.25,6.97-7.1,9.1-2.58,1.43-5.67,2.34-8.52,3.13-.05.01-.13.12-.13.17,0,.06.1.16.17.18,2.86.79,5.92,1.69,8.51,3.13,1.43.79,2.71,1.78,3.78,3.02,2.53,2.95,3.78,7.24,4.81,10.94.02.07.1.16.16.17s.17-.07.19-.13c.86-3.11,1.87-6.55,3.58-9.3,1.43-2.29,3.28-3.86,5.69-5.07,2.51-1.26,5.26-2.06,7.95-2.81.02-.06.04-.18.02-.22s-.1-.09-.17-.11c-1.95-.53-3.85-1.1-5.73-1.84-4.26-1.68-6.86-3.78-8.83-7.96-1.09-2.31-1.82-4.82-2.5-7.29Z"/>
</svg>